<svg width="199" height="44" viewBox="0 0 199 44" fill="none" xmlns="http://www.w3.org/2000/svg">
<rect width="199" height="44" rx="22" fill="#F2F2F2"/>
<g clip-path="url(#clip0_760_7292)">
<path d="M35.6 22.2273C35.6 21.5182 35.5364 20.8364 35.4182 20.1818H26V24.05H31.3818C31.15 25.3 30.4455 26.3591 29.3864 27.0682V29.5773H32.6182C34.5091 27.8364 35.6 25.2727 35.6 22.2273V22.2273Z" fill="#4285F4"/>
<path d="M26.0001 32C28.7001 32 30.9637 31.1045 32.6183 29.5773L29.3865 27.0682C28.491 27.6682 27.3455 28.0227 26.0001 28.0227C23.3955 28.0227 21.191 26.2636 20.4046 23.9H17.0637V26.4909C18.7092 29.7591 22.091 32 26.0001 32Z" fill="#34A853"/>
<path d="M20.4045 23.9C20.2045 23.3 20.0909 22.6591 20.0909 22C20.0909 21.3409 20.2045 20.7 20.4045 20.1V17.5091H17.0636C16.3864 18.8591 16 20.3864 16 22C16 23.6136 16.3864 25.1409 17.0636 26.4909L20.4045 23.9V23.9Z" fill="#FBBC04"/>
<path d="M26.0001 15.9773C27.4683 15.9773 28.7864 16.4818 29.8228 17.4727L32.691 14.6045C30.9592 12.9909 28.6955 12 26.0001 12C22.091 12 18.7092 14.2409 17.0637 17.5091L20.4046 20.1C21.191 17.7364 23.3955 15.9773 26.0001 15.9773Z" fill="#E94235"/>
</g>
<path d="M54.8906 23.7598H56.5996C56.5449 24.4115 56.3626 24.9925 56.0527 25.5029C55.7428 26.0088 55.3076 26.4076 54.7471 26.6992C54.1865 26.9909 53.5052 27.1367 52.7031 27.1367C52.0879 27.1367 51.5342 27.0273 51.042 26.8086C50.5498 26.5853 50.1283 26.2708 49.7773 25.8652C49.4264 25.4551 49.1576 24.9606 48.9707 24.3818C48.7884 23.8031 48.6973 23.1559 48.6973 22.4404V21.6133C48.6973 20.8978 48.7907 20.2507 48.9775 19.6719C49.1689 19.0931 49.4424 18.5986 49.7979 18.1885C50.1533 17.7738 50.5794 17.457 51.0762 17.2383C51.5775 17.0195 52.1403 16.9102 52.7646 16.9102C53.5576 16.9102 54.2275 17.056 54.7744 17.3477C55.3213 17.6393 55.7451 18.0426 56.0459 18.5576C56.3512 19.0726 56.5381 19.6628 56.6064 20.3281H54.8975C54.8519 19.8997 54.7516 19.5329 54.5967 19.2275C54.4463 18.9222 54.223 18.6898 53.9268 18.5303C53.6305 18.3662 53.2432 18.2842 52.7646 18.2842C52.3727 18.2842 52.0309 18.3571 51.7393 18.5029C51.4476 18.6488 51.2038 18.863 51.0078 19.1455C50.8118 19.4281 50.6637 19.7767 50.5635 20.1914C50.4678 20.6016 50.4199 21.071 50.4199 21.5996V22.4404C50.4199 22.9417 50.4632 23.3975 50.5498 23.8076C50.641 24.2132 50.7777 24.5618 50.96 24.8535C51.1468 25.1452 51.3838 25.3708 51.6709 25.5303C51.958 25.6898 52.3021 25.7695 52.7031 25.7695C53.1908 25.7695 53.585 25.6921 53.8857 25.5371C54.1911 25.3822 54.4212 25.1566 54.5762 24.8604C54.7357 24.5596 54.8405 24.1927 54.8906 23.7598ZM57.6797 23.3838V23.2266C57.6797 22.6934 57.7572 22.1989 57.9121 21.7432C58.0671 21.2829 58.2904 20.8841 58.582 20.5469C58.8783 20.2051 59.2383 19.9408 59.6621 19.7539C60.0905 19.5625 60.5736 19.4668 61.1113 19.4668C61.6536 19.4668 62.1367 19.5625 62.5605 19.7539C62.9889 19.9408 63.3512 20.2051 63.6475 20.5469C63.9437 20.8841 64.1693 21.2829 64.3242 21.7432C64.4792 22.1989 64.5566 22.6934 64.5566 23.2266V23.3838C64.5566 23.917 64.4792 24.4115 64.3242 24.8672C64.1693 25.3229 63.9437 25.7217 63.6475 26.0635C63.3512 26.4007 62.9912 26.665 62.5674 26.8564C62.1436 27.0433 61.6628 27.1367 61.125 27.1367C60.5827 27.1367 60.0973 27.0433 59.6689 26.8564C59.2451 26.665 58.8851 26.4007 58.5889 26.0635C58.2926 25.7217 58.0671 25.3229 57.9121 24.8672C57.7572 24.4115 57.6797 23.917 57.6797 23.3838ZM59.3271 23.2266V23.3838C59.3271 23.7165 59.3613 24.0309 59.4297 24.3271C59.498 24.6234 59.6051 24.8831 59.751 25.1064C59.8968 25.3298 60.0837 25.5052 60.3115 25.6328C60.5394 25.7604 60.8105 25.8242 61.125 25.8242C61.4303 25.8242 61.6947 25.7604 61.918 25.6328C62.1458 25.5052 62.3327 25.3298 62.4785 25.1064C62.6243 24.8831 62.7314 24.6234 62.7998 24.3271C62.8727 24.0309 62.9092 23.7165 62.9092 23.3838V23.2266C62.9092 22.8984 62.8727 22.5885 62.7998 22.2969C62.7314 22.0007 62.6221 21.7386 62.4717 21.5107C62.3258 21.2829 62.139 21.1051 61.9111 20.9775C61.6878 20.8454 61.4212 20.7793 61.1113 20.7793C60.8014 20.7793 60.5326 20.8454 60.3047 20.9775C60.0814 21.1051 59.8968 21.2829 59.751 21.5107C59.6051 21.7386 59.498 22.0007 59.4297 22.2969C59.3613 22.5885 59.3271 22.8984 59.3271 23.2266ZM67.5713 21.1826V27H65.9238V19.6035H67.4756L67.5713 21.1826ZM67.2773 23.0283L66.7441 23.0215C66.7487 22.4974 66.8216 22.0166 66.9629 21.5791C67.1087 21.1416 67.3092 20.7656 67.5645 20.4512C67.8242 20.1367 68.1341 19.8952 68.4941 19.7266C68.8542 19.5534 69.2552 19.4668 69.6973 19.4668C70.0527 19.4668 70.374 19.5169 70.6611 19.6172C70.9528 19.7129 71.2012 19.8701 71.4062 20.0889C71.6159 20.3076 71.7754 20.5924 71.8848 20.9434C71.9941 21.2897 72.0488 21.7158 72.0488 22.2217V27H70.3945V22.2148C70.3945 21.8594 70.3421 21.5791 70.2373 21.374C70.137 21.1644 69.9889 21.0163 69.793 20.9297C69.6016 20.8385 69.3623 20.793 69.0752 20.793C68.7926 20.793 68.5397 20.8522 68.3164 20.9707C68.0931 21.0892 67.904 21.251 67.749 21.4561C67.5986 21.6611 67.4824 21.8981 67.4004 22.167C67.3184 22.4359 67.2773 22.723 67.2773 23.0283ZM77.1211 19.6035V20.8066H72.9512V19.6035H77.1211ZM74.1543 17.792H75.8018V24.9561C75.8018 25.1839 75.8337 25.3594 75.8975 25.4824C75.9658 25.6009 76.0592 25.6807 76.1777 25.7217C76.2962 25.7627 76.4352 25.7832 76.5947 25.7832C76.7087 25.7832 76.818 25.7764 76.9229 25.7627C77.0277 25.749 77.112 25.7354 77.1758 25.7217L77.1826 26.9795C77.0459 27.0205 76.8864 27.057 76.7041 27.0889C76.5264 27.1208 76.3213 27.1367 76.0889 27.1367C75.7106 27.1367 75.3757 27.0706 75.084 26.9385C74.7923 26.8018 74.5645 26.5807 74.4004 26.2754C74.2363 25.9701 74.1543 25.5645 74.1543 25.0586V17.792ZM80.1562 19.6035V27H78.502V19.6035H80.1562ZM78.3926 17.6621C78.3926 17.4115 78.4746 17.2041 78.6387 17.04C78.8073 16.8714 79.0397 16.7871 79.3359 16.7871C79.6276 16.7871 79.8577 16.8714 80.0264 17.04C80.195 17.2041 80.2793 17.4115 80.2793 17.6621C80.2793 17.9082 80.195 18.1133 80.0264 18.2773C79.8577 18.4414 79.6276 18.5234 79.3359 18.5234C79.0397 18.5234 78.8073 18.4414 78.6387 18.2773C78.4746 18.1133 78.3926 17.9082 78.3926 17.6621ZM83.5947 21.1826V27H81.9473V19.6035H83.499L83.5947 21.1826ZM83.3008 23.0283L82.7676 23.0215C82.7721 22.4974 82.8451 22.0166 82.9863 21.5791C83.1322 21.1416 83.3327 20.7656 83.5879 20.4512C83.8477 20.1367 84.1576 19.8952 84.5176 19.7266C84.8776 19.5534 85.2786 19.4668 85.7207 19.4668C86.0762 19.4668 86.3975 19.5169 86.6846 19.6172C86.9762 19.7129 87.2246 19.8701 87.4297 20.0889C87.6393 20.3076 87.7988 20.5924 87.9082 20.9434C88.0176 21.2897 88.0723 21.7158 88.0723 22.2217V27H86.418V22.2148C86.418 21.8594 86.3656 21.5791 86.2607 21.374C86.1605 21.1644 86.0124 21.0163 85.8164 20.9297C85.625 20.8385 85.3857 20.793 85.0986 20.793C84.8161 20.793 84.5632 20.8522 84.3398 20.9707C84.1165 21.0892 83.9274 21.251 83.7725 21.4561C83.6221 21.6611 83.5059 21.8981 83.4238 22.167C83.3418 22.4359 83.3008 22.723 83.3008 23.0283ZM94.2041 25.2568V19.6035H95.8584V27H94.2998L94.2041 25.2568ZM94.4365 23.7188L94.9902 23.7051C94.9902 24.2018 94.9355 24.6598 94.8262 25.0791C94.7168 25.4938 94.5482 25.8561 94.3203 26.166C94.0924 26.4714 93.8008 26.7106 93.4453 26.8838C93.0898 27.0524 92.6637 27.1367 92.167 27.1367C91.807 27.1367 91.4766 27.0843 91.1758 26.9795C90.875 26.8747 90.6152 26.7129 90.3965 26.4941C90.1823 26.2754 90.016 25.9906 89.8975 25.6396C89.779 25.2887 89.7197 24.8695 89.7197 24.3818V19.6035H91.3672V24.3955C91.3672 24.6644 91.3991 24.89 91.4629 25.0723C91.5267 25.25 91.6133 25.3936 91.7227 25.5029C91.832 25.6123 91.9596 25.6898 92.1055 25.7354C92.2513 25.7809 92.4062 25.8037 92.5703 25.8037C93.0397 25.8037 93.4089 25.7126 93.6777 25.5303C93.9512 25.3434 94.1449 25.0928 94.2588 24.7783C94.3773 24.4639 94.4365 24.1107 94.4365 23.7188ZM100.808 27.1367C100.261 27.1367 99.7663 27.0479 99.3242 26.8701C98.8867 26.6878 98.513 26.4349 98.2031 26.1113C97.8978 25.7878 97.6631 25.4072 97.499 24.9697C97.335 24.5322 97.2529 24.0605 97.2529 23.5547V23.2812C97.2529 22.7025 97.3372 22.1784 97.5059 21.709C97.6745 21.2396 97.9092 20.8385 98.21 20.5059C98.5107 20.1686 98.8662 19.9111 99.2764 19.7334C99.6865 19.5557 100.131 19.4668 100.609 19.4668C101.138 19.4668 101.601 19.5557 101.997 19.7334C102.394 19.9111 102.722 20.1618 102.981 20.4854C103.246 20.8044 103.442 21.1849 103.569 21.627C103.701 22.069 103.768 22.5566 103.768 23.0898V23.7939H98.0527V22.6113H102.141V22.4814C102.132 22.1852 102.072 21.9072 101.963 21.6475C101.858 21.3877 101.696 21.1781 101.478 21.0186C101.259 20.859 100.967 20.7793 100.603 20.7793C100.329 20.7793 100.085 20.8385 99.8711 20.957C99.6615 21.071 99.486 21.2373 99.3447 21.4561C99.2035 21.6748 99.0941 21.9391 99.0166 22.249C98.9437 22.5544 98.9072 22.8984 98.9072 23.2812V23.5547C98.9072 23.8783 98.9505 24.179 99.0371 24.457C99.1283 24.7305 99.2604 24.9697 99.4336 25.1748C99.6068 25.3799 99.8164 25.5417 100.062 25.6602C100.309 25.7741 100.589 25.8311 100.903 25.8311C101.3 25.8311 101.653 25.7513 101.963 25.5918C102.273 25.4323 102.542 25.2067 102.77 24.915L103.638 25.7559C103.478 25.9883 103.271 26.2116 103.016 26.4258C102.76 26.6354 102.448 26.8063 102.079 26.9385C101.715 27.0706 101.291 27.1367 100.808 27.1367ZM110.549 25.3594L112.258 19.6035H113.311L113.023 21.3262L111.301 27H110.357L110.549 25.3594ZM109.544 19.6035L110.877 25.3867L110.986 27H109.934L107.931 19.6035H109.544ZM114.91 25.3184L116.202 19.6035H117.809L115.812 27H114.76L114.91 25.3184ZM113.488 19.6035L115.177 25.291L115.389 27H114.445L112.702 21.3193L112.415 19.6035H113.488ZM120.693 19.6035V27H119.039V19.6035H120.693ZM118.93 17.6621C118.93 17.4115 119.012 17.2041 119.176 17.04C119.344 16.8714 119.577 16.7871 119.873 16.7871C120.165 16.7871 120.395 16.8714 120.563 17.04C120.732 17.2041 120.816 17.4115 120.816 17.6621C120.816 17.9082 120.732 18.1133 120.563 18.2773C120.395 18.4414 120.165 18.5234 119.873 18.5234C119.577 18.5234 119.344 18.4414 119.176 18.2773C119.012 18.1133 118.93 17.9082 118.93 17.6621ZM125.889 19.6035V20.8066H121.719V19.6035H125.889ZM122.922 17.792H124.569V24.9561C124.569 25.1839 124.601 25.3594 124.665 25.4824C124.733 25.6009 124.827 25.6807 124.945 25.7217C125.064 25.7627 125.203 25.7832 125.362 25.7832C125.476 25.7832 125.586 25.7764 125.69 25.7627C125.795 25.749 125.88 25.7354 125.943 25.7217L125.95 26.9795C125.813 27.0205 125.654 27.057 125.472 27.0889C125.294 27.1208 125.089 27.1367 124.856 27.1367C124.478 27.1367 124.143 27.0706 123.852 26.9385C123.56 26.8018 123.332 26.5807 123.168 26.2754C123.004 25.9701 122.922 25.5645 122.922 25.0586V17.792ZM128.787 16.5V27H127.146V16.5H128.787ZM128.5 23.0283L127.967 23.0215C127.971 22.5111 128.042 22.0394 128.179 21.6064C128.32 21.1735 128.516 20.7975 128.767 20.4785C129.022 20.1549 129.327 19.9066 129.683 19.7334C130.038 19.5557 130.432 19.4668 130.865 19.4668C131.23 19.4668 131.558 19.5169 131.85 19.6172C132.146 19.7174 132.401 19.8792 132.615 20.1025C132.829 20.3213 132.991 20.6084 133.101 20.9639C133.215 21.3148 133.271 21.7432 133.271 22.249V27H131.617V22.2354C131.617 21.8799 131.565 21.5973 131.46 21.3877C131.36 21.1781 131.212 21.0277 131.016 20.9365C130.82 20.8408 130.58 20.793 130.298 20.793C130.002 20.793 129.74 20.8522 129.512 20.9707C129.288 21.0892 129.102 21.251 128.951 21.4561C128.801 21.6611 128.687 21.8981 128.609 22.167C128.536 22.4359 128.5 22.723 128.5 23.0283ZM146.232 21.9141V25.7148C146.091 25.9017 145.87 26.1068 145.569 26.3301C145.273 26.5488 144.879 26.738 144.387 26.8975C143.895 27.057 143.282 27.1367 142.548 27.1367C141.924 27.1367 141.352 27.0319 140.832 26.8223C140.312 26.6081 139.864 26.2959 139.485 25.8857C139.112 25.4756 138.822 24.9766 138.617 24.3887C138.412 23.7962 138.31 23.1217 138.31 22.3652V21.6748C138.31 20.9229 138.403 20.2529 138.59 19.665C138.781 19.0726 139.055 18.5713 139.41 18.1611C139.766 17.751 140.194 17.4411 140.695 17.2314C141.201 17.0173 141.773 16.9102 142.411 16.9102C143.227 16.9102 143.901 17.0469 144.435 17.3203C144.972 17.5892 145.387 17.9629 145.679 18.4414C145.97 18.9199 146.155 19.4668 146.232 20.082H144.551C144.496 19.7357 144.389 19.4258 144.229 19.1523C144.075 18.8789 143.851 18.6647 143.56 18.5098C143.272 18.3503 142.899 18.2705 142.438 18.2705C142.042 18.2705 141.693 18.3457 141.393 18.4961C141.092 18.6465 140.841 18.8675 140.641 19.1592C140.445 19.4508 140.297 19.8063 140.196 20.2256C140.096 20.6449 140.046 21.1234 140.046 21.6611V22.3652C140.046 22.9121 140.103 23.3975 140.217 23.8213C140.335 24.2451 140.504 24.6029 140.723 24.8945C140.946 25.1862 141.217 25.4072 141.536 25.5576C141.855 25.7035 142.215 25.7764 142.616 25.7764C143.008 25.7764 143.329 25.7445 143.58 25.6807C143.831 25.6123 144.029 25.5326 144.175 25.4414C144.325 25.3457 144.441 25.2546 144.523 25.168V23.1924H142.452V21.9141H146.232ZM147.654 23.3838V23.2266C147.654 22.6934 147.732 22.1989 147.887 21.7432C148.042 21.2829 148.265 20.8841 148.557 20.5469C148.853 20.2051 149.213 19.9408 149.637 19.7539C150.065 19.5625 150.548 19.4668 151.086 19.4668C151.628 19.4668 152.111 19.5625 152.535 19.7539C152.964 19.9408 153.326 20.2051 153.622 20.5469C153.918 20.8841 154.144 21.2829 154.299 21.7432C154.454 22.1989 154.531 22.6934 154.531 23.2266V23.3838C154.531 23.917 154.454 24.4115 154.299 24.8672C154.144 25.3229 153.918 25.7217 153.622 26.0635C153.326 26.4007 152.966 26.665 152.542 26.8564C152.118 27.0433 151.637 27.1367 151.1 27.1367C150.557 27.1367 150.072 27.0433 149.644 26.8564C149.22 26.665 148.86 26.4007 148.563 26.0635C148.267 25.7217 148.042 25.3229 147.887 24.8672C147.732 24.4115 147.654 23.917 147.654 23.3838ZM149.302 23.2266V23.3838C149.302 23.7165 149.336 24.0309 149.404 24.3271C149.473 24.6234 149.58 24.8831 149.726 25.1064C149.871 25.3298 150.058 25.5052 150.286 25.6328C150.514 25.7604 150.785 25.8242 151.1 25.8242C151.405 25.8242 151.669 25.7604 151.893 25.6328C152.12 25.5052 152.307 25.3298 152.453 25.1064C152.599 24.8831 152.706 24.6234 152.774 24.3271C152.847 24.0309 152.884 23.7165 152.884 23.3838V23.2266C152.884 22.8984 152.847 22.5885 152.774 22.2969C152.706 22.0007 152.597 21.7386 152.446 21.5107C152.3 21.2829 152.114 21.1051 151.886 20.9775C151.662 20.8454 151.396 20.7793 151.086 20.7793C150.776 20.7793 150.507 20.8454 150.279 20.9775C150.056 21.1051 149.871 21.2829 149.726 21.5107C149.58 21.7386 149.473 22.0007 149.404 22.2969C149.336 22.5885 149.302 22.8984 149.302 23.2266ZM155.598 23.3838V23.2266C155.598 22.6934 155.675 22.1989 155.83 21.7432C155.985 21.2829 156.208 20.8841 156.5 20.5469C156.796 20.2051 157.156 19.9408 157.58 19.7539C158.008 19.5625 158.492 19.4668 159.029 19.4668C159.572 19.4668 160.055 19.5625 160.479 19.7539C160.907 19.9408 161.269 20.2051 161.565 20.5469C161.862 20.8841 162.087 21.2829 162.242 21.7432C162.397 22.1989 162.475 22.6934 162.475 23.2266V23.3838C162.475 23.917 162.397 24.4115 162.242 24.8672C162.087 25.3229 161.862 25.7217 161.565 26.0635C161.269 26.4007 160.909 26.665 160.485 26.8564C160.062 27.0433 159.581 27.1367 159.043 27.1367C158.501 27.1367 158.015 27.0433 157.587 26.8564C157.163 26.665 156.803 26.4007 156.507 26.0635C156.211 25.7217 155.985 25.3229 155.83 24.8672C155.675 24.4115 155.598 23.917 155.598 23.3838ZM157.245 23.2266V23.3838C157.245 23.7165 157.279 24.0309 157.348 24.3271C157.416 24.6234 157.523 24.8831 157.669 25.1064C157.815 25.3298 158.002 25.5052 158.229 25.6328C158.457 25.7604 158.729 25.8242 159.043 25.8242C159.348 25.8242 159.613 25.7604 159.836 25.6328C160.064 25.5052 160.251 25.3298 160.396 25.1064C160.542 24.8831 160.649 24.6234 160.718 24.3271C160.791 24.0309 160.827 23.7165 160.827 23.3838V23.2266C160.827 22.8984 160.791 22.5885 160.718 22.2969C160.649 22.0007 160.54 21.7386 160.39 21.5107C160.244 21.2829 160.057 21.1051 159.829 20.9775C159.606 20.8454 159.339 20.7793 159.029 20.7793C158.719 20.7793 158.451 20.8454 158.223 20.9775C157.999 21.1051 157.815 21.2829 157.669 21.5107C157.523 21.7386 157.416 22.0007 157.348 22.2969C157.279 22.5885 157.245 22.8984 157.245 23.2266ZM168.593 19.6035H170.09V26.7949C170.09 27.4603 169.949 28.0254 169.666 28.4902C169.383 28.9551 168.989 29.3083 168.483 29.5498C167.978 29.7959 167.392 29.9189 166.727 29.9189C166.444 29.9189 166.13 29.8779 165.783 29.7959C165.441 29.7139 165.109 29.5817 164.785 29.3994C164.466 29.2217 164.2 28.987 163.985 28.6953L164.758 27.7246C165.022 28.0391 165.314 28.2692 165.633 28.415C165.952 28.5609 166.287 28.6338 166.638 28.6338C167.016 28.6338 167.337 28.5632 167.602 28.4219C167.87 28.2852 168.078 28.0824 168.224 27.8135C168.369 27.5446 168.442 27.2165 168.442 26.8291V21.2783L168.593 19.6035ZM163.568 23.3838V23.2402C163.568 22.6797 163.637 22.1693 163.773 21.709C163.91 21.2441 164.106 20.8454 164.361 20.5127C164.617 20.1755 164.926 19.918 165.291 19.7402C165.656 19.5579 166.068 19.4668 166.528 19.4668C167.007 19.4668 167.415 19.5534 167.752 19.7266C168.094 19.8997 168.379 20.1481 168.606 20.4717C168.834 20.7907 169.012 21.1735 169.14 21.6201C169.272 22.0622 169.37 22.5544 169.434 23.0967V23.5547C169.374 24.0833 169.274 24.5664 169.133 25.0039C168.992 25.4414 168.805 25.8197 168.572 26.1387C168.34 26.4577 168.053 26.7038 167.711 26.877C167.374 27.0501 166.975 27.1367 166.515 27.1367C166.063 27.1367 165.656 27.0433 165.291 26.8564C164.931 26.6696 164.621 26.4076 164.361 26.0703C164.106 25.7331 163.91 25.3366 163.773 24.8809C163.637 24.4206 163.568 23.9215 163.568 23.3838ZM165.216 23.2402V23.3838C165.216 23.721 165.248 24.0355 165.312 24.3271C165.38 24.6188 165.482 24.8763 165.619 25.0996C165.76 25.3184 165.938 25.4915 166.152 25.6191C166.371 25.7422 166.629 25.8037 166.925 25.8037C167.312 25.8037 167.629 25.7217 167.875 25.5576C168.126 25.3936 168.317 25.1725 168.449 24.8945C168.586 24.612 168.682 24.2975 168.736 23.9512V22.7139C168.709 22.445 168.652 22.1943 168.565 21.9619C168.483 21.7295 168.372 21.5267 168.23 21.3535C168.089 21.1758 167.911 21.0391 167.697 20.9434C167.483 20.8431 167.23 20.793 166.938 20.793C166.642 20.793 166.385 20.8568 166.166 20.9844C165.947 21.112 165.767 21.2874 165.626 21.5107C165.489 21.734 165.387 21.9938 165.318 22.29C165.25 22.5863 165.216 22.903 165.216 23.2402ZM173.562 16.5V27H171.908V16.5H173.562ZM178.628 27.1367C178.081 27.1367 177.587 27.0479 177.145 26.8701C176.707 26.6878 176.333 26.4349 176.023 26.1113C175.718 25.7878 175.483 25.4072 175.319 24.9697C175.155 24.5322 175.073 24.0605 175.073 23.5547V23.2812C175.073 22.7025 175.158 22.1784 175.326 21.709C175.495 21.2396 175.729 20.8385 176.03 20.5059C176.331 20.1686 176.687 19.9111 177.097 19.7334C177.507 19.5557 177.951 19.4668 178.43 19.4668C178.958 19.4668 179.421 19.5557 179.817 19.7334C180.214 19.9111 180.542 20.1618 180.802 20.4854C181.066 20.8044 181.262 21.1849 181.39 21.627C181.522 22.069 181.588 22.5566 181.588 23.0898V23.7939H175.873V22.6113H179.961V22.4814C179.952 22.1852 179.893 21.9072 179.783 21.6475C179.678 21.3877 179.517 21.1781 179.298 21.0186C179.079 20.859 178.787 20.7793 178.423 20.7793C178.149 20.7793 177.906 20.8385 177.691 20.957C177.482 21.071 177.306 21.2373 177.165 21.4561C177.024 21.6748 176.914 21.9391 176.837 22.249C176.764 22.5544 176.728 22.8984 176.728 23.2812V23.5547C176.728 23.8783 176.771 24.179 176.857 24.457C176.949 24.7305 177.081 24.9697 177.254 25.1748C177.427 25.3799 177.637 25.5417 177.883 25.6602C178.129 25.7741 178.409 25.8311 178.724 25.8311C179.12 25.8311 179.473 25.7513 179.783 25.5918C180.093 25.4323 180.362 25.2067 180.59 24.915L181.458 25.7559C181.299 25.9883 181.091 26.2116 180.836 26.4258C180.581 26.6354 180.269 26.8063 179.899 26.9385C179.535 27.0706 179.111 27.1367 178.628 27.1367Z" fill="#1F1F1F"/>
<defs>
<clipPath id="clip0_760_7292">
<rect width="20" height="20" fill="white" transform="translate(16 12)"/>
</clipPath>
</defs>
</svg>
